<?xml version="1.0" encoding="UTF-8"?>
<svg id="Layer_1" data-name="Layer 1" xmlns="http://www.w3.org/2000/svg" viewBox="0 0 97.61 186.54">
  <defs>
    <style>
      .cls-1 {
        fill: white;
      }

      .cls-2 {
        fill: white;
      }
    </style>
  </defs>
  <path class="cls-1" d="m59.82,144.28c-.21,1.12-1.47,7.02,1.74,13.04,1.1,2.07,2.44,3.6,3.57,4.67l-12.3-5.85c-1.6-.76-2.61-2.37-2.61-4.14v-1.06c-3.77.45-6.89.06-9.24-.5-15.39-3.69-21.79-20.66-22.63-23,1.38.59,2.77,1.17,4.15,1.76,1.11-1.36,8.64-10.37,19.3-9.63,2.56.18,4.79.88,6.61,1.72v-5.57c-2.05-.6-5.65-1.37-10.04-.73-6.02.88-10.08,3.88-11.8,5.32-2.74-2.31-5.48-4.62-8.22-6.93,2.18-1.6,7.85-5.33,16-5.73,6.58-.32,11.62,1.69,14.06,2.86v-7.68h-18.68c-1.06,0-5.37-.08-9.09-3.38-3.03-2.7-3.91-5.99-4.17-7.17h59.76v17.87c0,.82.22,1.63.64,2.34l3.47,5.83-11.6-5.56c-1.59-.76-2.6-2.37-2.6-4.13v-7.56h-7.28v12.3l17.38,9.11v26.01c0,1.15.43,2.25,1.21,3.1l7.3,7.95-16.18-8c-1.56-.77-2.55-2.36-2.55-4.11v-25.41l-7-3.38v12.2c-7.81-4.93-16.85-5.19-22.65-.75-3.2,2.45-4.69,5.77-5.39,7.95.41.39,7.82,7.17,15.66,4.54,2.16-.73,3.79-1.98,4.95-3.15-.28-.71-.65-1.04-.93-1.2-1.4-.82-4,.28-6.31,2.93-2.51-1.21-5.02-2.42-7.52-3.63.21-.36,3.9-6.4,10.32-6.51,6.25-.1,12.25,5.48,12.7,13.25Z"/>
  <g>
    <polygon class="cls-2" points="74.02 46.51 73.94 46.47 73.94 46.36 74.02 46.51"/>
    <path class="cls-2" d="m76.05,77.84c-1.36-1.65-2.11-3.71-2.11-5.85v-25.51l-9.04-4.36v8.15l-7.11-3.53v-13.24l15.36-2.37c1.14-.18,1.71-1.48,1.07-2.43l-2.26-3.41c-.29-.45-.79-.71-1.32-.71H20.05c.22,1.06.99,4.02,3.59,6.44,3.19,2.97,6.91,3.04,7.82,3.04l17.54.02v8.72c-6.62-3.7-13.72-4.06-18.46-.74-3.91,2.76-5.33,7.42-5.54,10.02-.89,10.8,15.74,23.15,40.14,31.91l-5.1-6.13c-1.37-1.65-2.12-3.71-2.12-5.85v-19.92l6.97,3.46v14.28c0,3.38,1.87,6.49,4.84,8.08l11.42,6.09-5.1-6.13Zm-26.93-22.8c0,.27-.22.48-.48.46-1.19-.09-3.71-.06-5.96,1.62-2.86,2.11-4.41,3.81-3.51,7.65-5.24-2.47-7.01-6.7-4.35-11.61,2.65-4.92,9.15-6.69,14.08-3.69.13.09.22.24.22.4v5.15Z"/>
  </g>
</svg>