<?xml version="1.0" encoding="UTF-8"?>
<svg id="Layer_1" data-name="Layer 1" xmlns="http://www.w3.org/2000/svg" viewBox="0 0 154.41 87.56">
  <defs>
    <style>
      .cls-1 {
        fill: #326a83;
      }

      .cls-2 {
        fill: #6fab9e;
      }
    </style>
  </defs>
  <path class="cls-1" d="m124.97,61.04c-.21,1.12-1.47,7.02,1.74,13.04,1.1,2.07,2.44,3.6,3.57,4.67l-12.3-5.85c-1.6-.76-2.61-2.37-2.61-4.14v-1.06c-3.77.45-6.89.06-9.24-.5-15.39-3.69-21.79-20.66-22.63-23,1.38.59,2.77,1.17,4.15,1.76,1.11-1.36,8.64-10.37,19.3-9.63,2.56.18,4.79.88,6.61,1.72v-5.57c-2.05-.6-5.65-1.37-10.04-.73-6.02.88-10.08,3.88-11.8,5.32-2.74-2.31-5.48-4.62-8.22-6.93,2.18-1.6,7.85-5.33,16-5.73,6.58-.32,11.62,1.69,14.06,2.86v-7.68h-18.68c-1.06,0-5.37-.08-9.09-3.38-3.03-2.7-3.91-5.99-4.17-7.17h59.76v17.87c0,.82.22,1.63.64,2.34l3.47,5.83-11.6-5.56c-1.59-.76-2.6-2.37-2.6-4.13v-7.56h-7.28v12.3l17.38,9.11v26.01c0,1.15.43,2.25,1.21,3.1l7.3,7.95-16.18-8c-1.56-.77-2.55-2.36-2.55-4.11v-25.41l-7-3.38v12.2c-7.81-4.93-16.85-5.19-22.65-.75-3.2,2.45-4.69,5.77-5.39,7.95.41.39,7.82,7.17,15.66,4.54,2.16-.73,3.79-1.98,4.95-3.15-.28-.71-.65-1.04-.93-1.2-1.4-.82-4,.28-6.31,2.93-2.51-1.21-5.02-2.42-7.52-3.63.21-.36,3.9-6.4,10.32-6.51,6.25-.1,12.25,5.48,12.7,13.25Z"/>
  <g>
    <polygon class="cls-2" points="70.56 32.94 70.46 32.9 70.46 32.78 70.56 32.94"/>
    <path class="cls-2" d="m72.87,68.65c-1.55-1.88-2.41-4.23-2.41-6.67v-29.08l-10.3-4.97v9.29l-8.1-4.03v-15.09l17.5-2.7c1.3-.21,1.94-1.68,1.22-2.77l-2.58-3.89c-.33-.51-.9-.81-1.5-.81H9.05c.25,1.21,1.12,4.58,4.09,7.34,3.64,3.38,7.87,3.47,8.91,3.47l19.99.02v9.93c-7.55-4.22-15.63-4.63-21.03-.84-4.46,3.14-6.08,8.45-6.32,11.42-1.01,12.31,17.93,26.39,45.75,36.36l-5.81-6.99c-1.57-1.88-2.42-4.23-2.42-6.67v-22.71l7.95,3.94v16.27c0,3.85,2.13,7.4,5.52,9.21l13.01,6.94-5.81-6.99Zm-30.7-25.99c0,.3-.25.55-.55.53-1.36-.1-4.23-.06-6.79,1.85-3.26,2.41-5.03,4.34-3.99,8.72-5.97-2.82-7.99-7.63-4.96-13.23,3.02-5.6,10.43-7.62,16.04-4.2.15.1.25.27.25.45v5.87Z"/>
  </g>
</svg>